Coordinates
version=1
nRows=9
nColumns=24
inDegrees=yes

Units are S.I. units (second, meters, Newtons, ...)
Angles are in degrees.

endheader
time	pelvis_tilt	pelvis_list	pelvis_rotation	pelvis_tx	pelvis_ty	pelvis_tz	hip_flexion_r	hip_adduction_r	hip_rotation_r	knee_angle_r	ankle_angle_r	subtalar_angle_r	mtp_angle_r	hip_flexion_l	hip_adduction_l	hip_rotation_l	knee_angle_l	ankle_angle_l	subtalar_angle_l	mtp_angle_l	lumbar_extension	lumbar_bending	lumbar_rotation
      5.41000000	      3.10734557	     -3.52853097	      3.49286586	     -1.66110320	      0.94352289	      0.15458552	     17.65975221	      5.01492019	     -6.74342293	    -51.03259474	      3.47976627	    -19.34024476	      0.00000000	     -1.26125501	      0.65548928	      1.91067599	     -6.57258264	      8.81275293	     -1.88510925	      0.00000000	    -19.10829960	      5.40267969	     -0.08445967
      5.42000000	      2.98234141	     -3.66227033	      3.54623480	     -1.65191534	      0.94360937	      0.15448941	     18.33000327	      5.10346567	     -6.94335326	    -48.71836008	      3.96962000	    -19.37752024	      0.00000000	     -1.83115688	      0.51156513	      1.88494456	     -6.39206506	      9.18822407	     -1.90489226	      0.00000000	    -19.13422656	      5.58135402	     -0.35564464
      5.43000000	      2.87974632	     -3.75845986	      3.61422669	     -1.64269261	      0.94359180	      0.15441339	     18.86626687	      5.13614424	     -7.22534805	    -46.15809849	      4.39665747	    -19.24675635	      0.00000000	     -2.44065443	      0.40451400	      1.88803230	     -6.18800290	      9.54286935	     -1.94761893	      0.00000000	    -19.17816826	      5.71941551	     -0.65277219
      5.44000000	      2.77781174	     -3.82280969	      3.68131944	     -1.63341345	      0.94343020	      0.15437633	     19.29217589	      5.12922010	     -7.57276875	    -43.36493179	      4.74696051	    -18.95211838	      0.00000000	     -3.07252809	      0.32938219	      1.92217596	     -5.95554597	      9.88258045	     -2.02136912	      0.00000000	    -19.20518830	      5.81533714	     -0.96094139
      5.45000000	      2.69847341	     -3.83831520	      3.73377438	     -1.62405499	      0.94314041	      0.15440384	     19.58422470	      5.07190283	     -7.98923120	    -40.36312799	      5.10971304	    -18.41741876	      0.00000000	     -3.75853934	      0.30267057	      1.97368856	     -5.68836192	     10.19644990	     -2.12938283	      0.00000000	    -19.24412124	      5.84741019	     -1.26770452
      5.46000000	      2.61087361	     -3.80835300	      3.76014060	     -1.61460368	      0.94266892	      0.15451254	     19.78351545	      4.97167915	     -8.48227424	    -37.18091401	      5.50023249	    -17.62418476	      0.00000000	     -4.46423585	      0.32264423	      2.00598453	     -5.39025377	     10.47053570	     -2.27899272	      0.00000000	    -19.24977328	      5.81341322	     -1.53807588
      5.47000000	      2.51989560	     -3.72669460	      3.76463789	     -1.60505377	      0.94201874	      0.15471256	     19.89093089	      4.83688117	     -9.02830130	    -33.84660313	      5.82277894	    -16.59147657	      0.00000000	     -5.19344822	      0.39492313	      2.04077641	     -5.07026579	     10.75898591	     -2.41879356	      0.00000000	    -19.23030310	      5.70327005	     -1.80231526
      5.48000000	      2.43136232	     -3.58779900	      3.75334876	     -1.59539673	      0.94119185	      0.15499920	     19.91370004	      4.66001009	     -9.65161974	    -30.40477886	      6.12683370	    -15.29564349	      0.00000000	     -5.95041205	      0.52537836	      2.06826904	     -4.73083666	     11.04843892	     -2.55708212	      0.00000000	    -19.19301733	      5.51124194	     -2.05104096
      5.49000000	      2.35269578	     -3.39596900	      3.73577752	     -1.58562983	      0.94020192	      0.15536563	     19.85777259	      4.44909031	    -10.35948309	    -26.89847082	      6.40266028	    -13.74848000	      0.00000000	     -6.73817686	      0.70826663	      2.08887621	     -4.37815948	     11.33569201	     -2.69400215	      0.00000000	    -19.14792081	      5.24519670	     -2.29541126
